<svg style="position: absolute; width: 0; height: 0; overflow: hidden;" version="1.1" xmlns="http://www.w3.org/2000/svg" xmlns:xlink="http://www.w3.org/1999/xlink">
<defs>
<symbol id="icon-baseball" viewBox="0 0 45 64">
<title>baseball</title>
<path d="M22.747 6.673c-11.892 0-21.549 9.657-21.549 21.549s9.657 21.549 21.549 21.549c11.892 0 21.549-9.657 21.549-21.549s-9.657-21.549-21.549-21.549zM22.747 8.253c11.038 0 19.968 8.931 19.968 19.968s-8.931 19.968-19.968 19.968c-11.038 0-19.968-8.931-19.968-19.968s8.93-19.968 19.968-19.968z"></path>
<path fill="none" stroke="#000" stroke-width="1.7028" stroke-miterlimit="4" stroke-linecap="round" stroke-linejoin="round" d="M8.804 13.236c2.206 3.321 3.539 7.218 3.829 11.195s-0.464 8.025-2.166 11.632c-0.895 1.896-2.048 3.671-3.416 5.26"></path>
<path fill="none" stroke="#000" stroke-width="1.7028" stroke-miterlimit="4" stroke-linecap="round" stroke-linejoin="round" d="M36.952 13.236c-2.206 3.321-3.539 7.218-3.828 11.195s0.465 8.025 2.166 11.632c0.895 1.896 2.048 3.671 3.416 5.26"></path>
</symbol>
<symbol id="icon-basketball" viewBox="0 0 45 64">
<title>basketball</title>
<path d="M45.475 11.958c0 1.661-9.596 3.007-21.433 3.007s-21.433-1.346-21.433-3.007c0-1.661 9.596-3.007 21.433-3.007s21.433 1.346 21.433 3.007z"></path>
<path fill="none" stroke="#000" stroke-width="0.6486" stroke-miterlimit="4" stroke-linecap="butt" stroke-linejoin="miter" d="M3.043 11.749l8.763 39.174"></path>
<path fill="none" stroke="#000" stroke-width="0.6486" stroke-miterlimit="4" stroke-linecap="butt" stroke-linejoin="miter" d="M44.975 11.749l-8.763 39.174"></path>
<path fill="none" stroke="#000" stroke-width="0.6351" stroke-miterlimit="4" stroke-linecap="butt" stroke-linejoin="miter" d="M12.467 13.381l8.769 37.541"></path>
<path fill="none" stroke="#000" stroke-width="0.6351" stroke-miterlimit="4" stroke-linecap="butt" stroke-linejoin="miter" d="M35.552 13.381l-8.769 37.541"></path>
<path fill="none" stroke="#000" stroke-width="0.6486" stroke-miterlimit="4" stroke-linecap="butt" stroke-linejoin="miter" d="M10.35 43.87l31.443-18.771"></path>
<path fill="none" stroke="#000" stroke-width="0.6486" stroke-miterlimit="4" stroke-linecap="butt" stroke-linejoin="miter" d="M37.566 43.87l-31.443-18.771"></path>
<path fill="none" stroke="#000" stroke-width="0.6547" stroke-miterlimit="4" stroke-linecap="butt" stroke-linejoin="miter" d="M23.881 50.983l0.129-36.609"></path>
</symbol>
<symbol id="icon-esports" viewBox="0 0 45 64">
<title>esports</title>
<path stroke-width="0.6726" stroke-miterlimit="4" stroke-linecap="round" stroke-linejoin="round" d="M1.805 44.59h42.315v10.405h-42.315v-10.405z"></path>
<path d="M21.947 20.959c-0 0-0 0-0 0-0.216 0-0.392 0.175-0.392 0.391v26.657c0 0.216 0.175 0.391 0.392 0.391 0 0 0 0 0 0h2.031c0 0 0 0 0 0 0.216 0 0.392-0.175 0.392-0.391v-26.657c-0-0.216-0.175-0.391-0.392-0.391-0 0-0 0-0 0zM22.338 21.742h1.248v25.874h-1.248z"></path>
<path d="M31.189 20.327c0 4.543-3.683 8.226-8.226 8.226s-8.226-3.683-8.226-8.226c0-4.543 3.683-8.226 8.226-8.226s8.226 3.683 8.226 8.226z"></path>
<path stroke-width="2.327" stroke-miterlimit="4" stroke-linecap="round" stroke-linejoin="round" d="M22.415 36.495v-7.697h1.14v15.394h-1.14z"></path>
</symbol>
<symbol id="icon-football" viewBox="0 0 45 64">
<title>football</title>
<path fill="none" stroke="#000" stroke-width="1.2323" stroke-miterlimit="4" stroke-linecap="round" stroke-linejoin="round" d="M43.332 25.823c0 6.205-9.372 11.236-20.933 11.236s-20.933-5.030-20.933-11.236c0-6.205 9.372-11.236 20.933-11.236s20.933 5.030 20.933 11.236z"></path>
<path d="M22.325 13.971c-0.34 0-0.616 0.276-0.616 0.616v5.732c0 0.34 0.276 0.616 0.616 0.616h0.473c0.34 0 0.616-0.276 0.616-0.616v-5.732c0-0.34-0.276-0.616-0.616-0.616z"></path>
<path d="M17.226 14.649c-0 0-0 0-0 0-0.299 0-0.541 0.242-0.541 0.541 0 0 0 0 0 0v3.79c0 0 0 0 0 0 0 0.299 0.242 0.541 0.541 0.541 0 0 0 0 0 0h0.553c0.299-0 0.541-0.243 0.541-0.541 0-0 0-0 0-0v-3.79c0-0 0-0 0-0 0-0.299-0.242-0.541-0.541-0.541z"></path>
<path d="M27.352 14.405c-0 0-0 0-0 0-0.303 0-0.549 0.246-0.549 0.549 0 0 0 0 0 0v4.017c0 0.303 0.246 0.549 0.549 0.549 0 0 0 0 0 0h0.536c0 0 0 0 0 0 0.303 0 0.549-0.246 0.549-0.549v-4.017c0-0 0-0 0-0 0-0.303-0.246-0.549-0.549-0.549-0 0-0 0-0 0z"></path>
</symbol>
<symbol id="icon-golf" viewBox="0 0 45 64">
<title>golf</title>
<path stroke-width="0.8033" stroke-miterlimit="4" stroke-linecap="round" stroke-linejoin="round" d="M24.528 49.531c0 1.213-5.194 2.196-11.601 2.196s-11.601-0.983-11.601-2.196c0-1.213 5.194-2.196 11.601-2.196s11.601 0.983 11.601 2.196z"></path>
<path d="M13.817 18.817l-0.209-9.517 29.242 4.761z"></path>
<path d="M12.563 9.299v39.508h0.729v-39.508z"></path>
</symbol>
<symbol id="icon-soccer" viewBox="0 0 45 64">
<title>soccer</title>
<path fill="none" stroke="#000" stroke-width="1.9443" stroke-miterlimit="4" stroke-linecap="round" stroke-linejoin="round" d="M43.486 30.665c0 11.364-9.212 20.577-20.577 20.577s-20.577-9.212-20.577-20.577c0-11.364 9.213-20.577 20.577-20.577s20.577 9.212 20.577 20.577z"></path>
<path stroke-width="1.9443" stroke-miterlimit="4" stroke-linecap="round" stroke-linejoin="round" d="M27.32 37.442l-8.813 0.004-2.727-8.38 7.127-5.183 7.132 5.177z"></path>
</symbol>
<symbol id="icon-xgames" viewBox="0 0 45 64">
<title>xgames</title>
<path d="M1.003 25.071c-0.097 0-0.176 0.079-0.176 0.176v1.44c0 0.097 0.079 0.176 0.176 0.176h43.209c0.097-0 0.176-0.079 0.176-0.176v-1.44c-0-0.097-0.079-0.176-0.176-0.176zM1.18 25.424h42.856v1.088h-42.856z"></path>
<path d="M1.256 25.154c0 0-0 0-0 0-0.139 0-0.252 0.113-0.252 0.252v1.089c0 0 0 0 0 0 0 0.139 0.113 0.252 0.252 0.252 0 0 0 0 0 0h42.708c0.139-0 0.252-0.113 0.252-0.252 0 0 0-0 0-0v-1.089c-0-0.139-0.113-0.252-0.252-0.252h-21.354zM1.508 25.658h42.204v0.585h-42.204v-0.293z"></path>
<path d="M1.582 25.372c0 0-0 0-0 0-0.139 0-0.252 0.113-0.252 0.252 0 0 0 0 0 0v0.653c0 0 0 0 0 0 0 0.139 0.113 0.252 0.252 0.252 0 0 0 0 0 0h42.054c0 0 0 0 0 0 0.139 0 0.252-0.113 0.252-0.252 0 0 0-0 0-0v-0.653c0 0 0-0 0-0 0-0.139-0.113-0.252-0.252-0.252 0 0-0 0-0 0h-21.027zM1.834 25.876h41.55v0.149h-41.55v-0.075z"></path>
<path d="M0.888 24.909c-0 0-0 0-0 0-0.136 0-0.248 0.108-0.252 0.244l-0.023 0.76c-0.006 0.213-0.008 0.414-0.004 0.57 0.002 0.078 0.004 0.145 0.009 0.2 0.002 0.028 0.004 0.052 0.008 0.077s-0.006 0.039 0.038 0.116c0 0-0 0 0 0 0.014 0.024 0.031 0.044 0.050 0.061 0 0 0 0.001 0.001 0.001s0.001 0.001 0.002 0.002c0.010 0.009 0.022 0.018 0.034 0.025 0.002 0.001 0.002 0.002 0.003 0.002 0.003 0.002 0.003 0.002 0.006 0.003 0.009 0.005 0.019 0.010 0.030 0.015 0.001 0.001 0.003 0.001 0.004 0.002 0.003 0.001 0.006 0.003 0.008 0.004 0.023 0.008 0.036 0.011 0.048 0.013 0.024 0.005 0.042 0.006 0.064 0.008 0.044 0.004 0.099 0.007 0.175 0.010 0.151 0.006 0.378 0.011 0.706 0.016 0.656 0.009 1.709 0.015 3.316 0.019 3.214 0.008 8.642 0.008 17.516 0.003l21.703-0.013c0.139-0 0.252-0.113 0.252-0.252 0 0 0-0 0-0v-1.633c-0-0.139-0.113-0.252-0.252-0.252h-21.721zM1.133 25.413h42.946v1.129l-21.452 0.014c-8.874 0.006-14.301 0.006-17.514-0.003-1.606-0.004-2.659-0.010-3.311-0.019-0.323-0.004-0.545-0.010-0.687-0.015-0.001-0.018-0.002-0.027-0.002-0.046-0.003-0.145-0.002-0.339 0.004-0.544zM1.827 25.535c0 0-0 0-0 0-0.139 0-0.252 0.113-0.252 0.252 0 0 0 0 0 0v0.327c0 0 0 0 0 0 0 0.139 0.113 0.252 0.252 0.252 0 0 0 0 0 0h41.564c0 0 0 0 0 0 0.139 0 0.252-0.113 0.252-0.252 0 0 0-0 0-0v-0.327c0 0 0-0 0-0 0-0.139-0.113-0.252-0.252-0.252 0 0-0 0-0 0h-20.782z"></path>
<path d="M8.601 26.95c-2.208 0-4.003 1.795-4.003 4.003s1.795 4.002 4.003 4.002c2.208 0 4.003-1.794 4.003-4.003s-1.795-4.003-4.003-4.003zM8.601 27.381c1.975 0 3.572 1.597 3.572 3.572s-1.597 3.572-3.572 3.572c-1.975 0-3.572-1.596-3.572-3.572s1.597-3.572 3.572-3.572z"></path>
<path d="M36.247 26.95c-2.208 0-4.003 1.795-4.003 4.003s1.795 4.002 4.003 4.002c2.208 0 4.003-1.794 4.003-4.003s-1.795-4.003-4.003-4.003zM36.247 27.381c1.975 0 3.572 1.597 3.572 3.572s-1.597 3.572-3.572 3.572c-1.975 0-3.572-1.596-3.572-3.572s1.597-3.572 3.572-3.572z"></path>
</symbol>
</defs>
</svg>
