<svg style="position: absolute; width: 0; height: 0; overflow: hidden;" version="1.1" xmlns="http://www.w3.org/2000/svg" xmlns:xlink="http://www.w3.org/1999/xlink">
    <defs>
        <symbol id="icon-baseball" viewBox="0 0 45 64">
            <title>baseball</title>
            <path d="M22.747 6.673c-11.892 0-21.549 9.657-21.549 21.549s9.657 21.549 21.549 21.549c11.892 0 21.549-9.657 21.549-21.549s-9.657-21.549-21.549-21.549zM22.747 8.253c11.038 0 19.968 8.931 19.968 19.968s-8.931 19.968-19.968 19.968c-11.038 0-19.968-8.931-19.968-19.968s8.93-19.968 19.968-19.968z"></path>
            <path fill="none" stroke="#000" stroke-width="1.7028" stroke-miterlimit="4" stroke-linecap="round" stroke-linejoin="round" d="M8.804 13.236c2.206 3.321 3.539 7.218 3.829 11.195s-0.464 8.025-2.166 11.632c-0.895 1.896-2.048 3.671-3.416 5.26"></path>
            <path fill="none" stroke="#000" stroke-width="1.7028" stroke-miterlimit="4" stroke-linecap="round" stroke-linejoin="round" d="M36.952 13.236c-2.206 3.321-3.539 7.218-3.828 11.195s0.465 8.025 2.166 11.632c0.895 1.896 2.048 3.671 3.416 5.26"></path>
        </symbol>
        <symbol id="icon-basketball" viewBox="0 0 45 64">
            <title>basketball</title>
            <path d="M45.475 11.958c0 1.661-9.596 3.007-21.433 3.007s-21.433-1.346-21.433-3.007c0-1.661 9.596-3.007 21.433-3.007s21.433 1.346 21.433 3.007z"></path>
            <path fill="none" stroke="#000" stroke-width="0.6486" stroke-miterlimit="4" stroke-linecap="butt" stroke-linejoin="miter" d="M3.043 11.749l8.763 39.174"></path>
            <path fill="none" stroke="#000" stroke-width="0.6486" stroke-miterlimit="4" stroke-linecap="butt" stroke-linejoin="miter" d="M44.975 11.749l-8.763 39.174"></path>
            <path fill="none" stroke="#000" stroke-width="0.6351" stroke-miterlimit="4" stroke-linecap="butt" stroke-linejoin="miter" d="M12.467 13.381l8.769 37.541"></path>
            <path fill="none" stroke="#000" stroke-width="0.6351" stroke-miterlimit="4" stroke-linecap="butt" stroke-linejoin="miter" d="M35.552 13.381l-8.769 37.541"></path>
            <path fill="none" stroke="#000" stroke-width="0.6486" stroke-miterlimit="4" stroke-linecap="butt" stroke-linejoin="miter" d="M10.35 43.87l31.443-18.771"></path>
            <path fill="none" stroke="#000" stroke-width="0.6486" stroke-miterlimit="4" stroke-linecap="butt" stroke-linejoin="miter" d="M37.566 43.87l-31.443-18.771"></path>
            <path fill="none" stroke="#000" stroke-width="0.6547" stroke-miterlimit="4" stroke-linecap="butt" stroke-linejoin="miter" d="M23.881 50.983l0.129-36.609"></path>
        </symbol>
        <symbol id="icon-esports" viewBox="0 0 45 64">
            <title>esports</title>
            <path stroke-width="0.6726" stroke-miterlimit="4" stroke-linecap="round" stroke-linejoin="round" d="M1.805 44.59h42.315v10.405h-42.315v-10.405z"></path>
            <path d="M21.947 20.959c-0 0-0 0-0 0-0.216 0-0.392 0.175-0.392 0.391v26.657c0 0.216 0.175 0.391 0.392 0.391 0 0 0 0 0 0h2.031c0 0 0 0 0 0 0.216 0 0.392-0.175 0.392-0.391v-26.657c-0-0.216-0.175-0.391-0.392-0.391-0 0-0 0-0 0zM22.338 21.742h1.248v25.874h-1.248z"></path>
            <path d="M31.189 20.327c0 4.543-3.683 8.226-8.226 8.226s-8.226-3.683-8.226-8.226c0-4.543 3.683-8.226 8.226-8.226s8.226 3.683 8.226 8.226z"></path>
            <path stroke-width="2.327" stroke-miterlimit="4" stroke-linecap="round" stroke-linejoin="round" d="M22.415 36.495v-7.697h1.14v15.394h-1.14z"></path>
        </symbol>
        <symbol id="icon-football" viewBox="0 0 45 64">
            <title>football</title>
            <path fill="none" stroke="#000" stroke-width="1.2323" stroke-miterlimit="4" stroke-linecap="round" stroke-linejoin="round" d="M43.332 25.823c0 6.205-9.372 11.236-20.933 11.236s-20.933-5.030-20.933-11.236c0-6.205 9.372-11.236 20.933-11.236s20.933 5.030 20.933 11.236z"></path>
            <path d="M22.325 13.971c-0.34 0-0.616 0.276-0.616 0.616v5.732c0 0.34 0.276 0.616 0.616 0.616h0.473c0.34 0 0.616-0.276 0.616-0.616v-5.732c0-0.34-0.276-0.616-0.616-0.616z"></path>
            <path d="M17.226 14.649c-0 0-0 0-0 0-0.299 0-0.541 0.242-0.541 0.541 0 0 0 0 0 0v3.79c0 0 0 0 0 0 0 0.299 0.242 0.541 0.541 0.541 0 0 0 0 0 0h0.553c0.299-0 0.541-0.243 0.541-0.541 0-0 0-0 0-0v-3.79c0-0 0-0 0-0 0-0.299-0.242-0.541-0.541-0.541z"></path>
            <path d="M27.352 14.405c-0 0-0 0-0 0-0.303 0-0.549 0.246-0.549 0.549 0 0 0 0 0 0v4.017c0 0.303 0.246 0.549 0.549 0.549 0 0 0 0 0 0h0.536c0 0 0 0 0 0 0.303 0 0.549-0.246 0.549-0.549v-4.017c0-0 0-0 0-0 0-0.303-0.246-0.549-0.549-0.549-0 0-0 0-0 0z"></path>
        </symbol>
        <symbol id="icon-golf" viewBox="0 0 45 64">
            <title>golf</title>
            <path stroke-width="0.8033" stroke-miterlimit="4" stroke-linecap="round" stroke-linejoin="round" d="M24.528 49.531c0 1.213-5.194 2.196-11.601 2.196s-11.601-0.983-11.601-2.196c0-1.213 5.194-2.196 11.601-2.196s11.601 0.983 11.601 2.196z"></path>
            <path d="M13.817 18.817l-0.209-9.517 29.242 4.761z"></path>
            <path d="M12.563 9.299v39.508h0.729v-39.508z"></path>
        </symbol>
        <symbol id="icon-soccer" viewBox="0 0 45 64">
            <title>soccer</title>
            <path fill="none" stroke="#000" stroke-width="1.9443" stroke-miterlimit="4" stroke-linecap="round" stroke-linejoin="round" d="M43.486 30.665c0 11.364-9.212 20.577-20.577 20.577s-20.577-9.212-20.577-20.577c0-11.364 9.213-20.577 20.577-20.577s20.577 9.212 20.577 20.577z"></path>
            <path stroke-width="1.9443" stroke-miterlimit="4" stroke-linecap="round" stroke-linejoin="round" d="M27.32 37.442l-8.813 0.004-2.727-8.38 7.127-5.183 7.132 5.177z"></path>
        </symbol>
        <symbol id="icon-xgames" viewBox="0 0 45 64">
            <title>xgames</title>
            <path d="M1.003 25.071c-0.097 0-0.176 0.079-0.176 0.176v1.44c0 0.097 0.079 0.176 0.176 0.176h43.209c0.097-0 0.176-0.079 0.176-0.176v-1.44c-0-0.097-0.079-0.176-0.176-0.176zM1.18 25.424h42.856v1.088h-42.856z"></path>
            <path d="M1.256 25.154c0 0-0 0-0 0-0.139 0-0.252 0.113-0.252 0.252v1.089c0 0 0 0 0 0 0 0.139 0.113 0.252 0.252 0.252 0 0 0 0 0 0h42.708c0.139-0 0.252-0.113 0.252-0.252 0 0 0-0 0-0v-1.089c-0-0.139-0.113-0.252-0.252-0.252h-21.354zM1.508 25.658h42.204v0.585h-42.204v-0.293z"></path>
            <path d="M1.582 25.372c0 0-0 0-0 0-0.139 0-0.252 0.113-0.252 0.252 0 0 0 0 0 0v0.653c0 0 0 0 0 0 0 0.139 0.113 0.252 0.252 0.252 0 0 0 0 0 0h42.054c0 0 0 0 0 0 0.139 0 0.252-0.113 0.252-0.252 0 0 0-0 0-0v-0.653c0 0 0-0 0-0 0-0.139-0.113-0.252-0.252-0.252 0 0-0 0-0 0h-21.027zM1.834 25.876h41.55v0.149h-41.55v-0.075z"></path>
            <path d="M0.888 24.909c-0 0-0 0-0 0-0.136 0-0.248 0.108-0.252 0.244l-0.023 0.76c-0.006 0.213-0.008 0.414-0.004 0.57 0.002 0.078 0.004 0.145 0.009 0.2 0.002 0.028 0.004 0.052 0.008 0.077s-0.006 0.039 0.038 0.116c0 0-0 0 0 0 0.014 0.024 0.031 0.044 0.050 0.061 0 0 0 0.001 0.001 0.001s0.001 0.001 0.002 0.002c0.010 0.009 0.022 0.018 0.034 0.025 0.002 0.001 0.002 0.002 0.003 0.002 0.003 0.002 0.003 0.002 0.006 0.003 0.009 0.005 0.019 0.010 0.030 0.015 0.001 0.001 0.003 0.001 0.004 0.002 0.003 0.001 0.006 0.003 0.008 0.004 0.023 0.008 0.036 0.011 0.048 0.013 0.024 0.005 0.042 0.006 0.064 0.008 0.044 0.004 0.099 0.007 0.175 0.010 0.151 0.006 0.378 0.011 0.706 0.016 0.656 0.009 1.709 0.015 3.316 0.019 3.214 0.008 8.642 0.008 17.516 0.003l21.703-0.013c0.139-0 0.252-0.113 0.252-0.252 0 0 0-0 0-0v-1.633c-0-0.139-0.113-0.252-0.252-0.252h-21.721zM1.133 25.413h42.946v1.129l-21.452 0.014c-8.874 0.006-14.301 0.006-17.514-0.003-1.606-0.004-2.659-0.010-3.311-0.019-0.323-0.004-0.545-0.010-0.687-0.015-0.001-0.018-0.002-0.027-0.002-0.046-0.003-0.145-0.002-0.339 0.004-0.544zM1.827 25.535c0 0-0 0-0 0-0.139 0-0.252 0.113-0.252 0.252 0 0 0 0 0 0v0.327c0 0 0 0 0 0 0 0.139 0.113 0.252 0.252 0.252 0 0 0 0 0 0h41.564c0 0 0 0 0 0 0.139 0 0.252-0.113 0.252-0.252 0 0 0-0 0-0v-0.327c0 0 0-0 0-0 0-0.139-0.113-0.252-0.252-0.252 0 0-0 0-0 0h-20.782z"></path>
            <path d="M8.601 26.95c-2.208 0-4.003 1.795-4.003 4.003s1.795 4.002 4.003 4.002c2.208 0 4.003-1.794 4.003-4.003s-1.795-4.003-4.003-4.003zM8.601 27.381c1.975 0 3.572 1.597 3.572 3.572s-1.597 3.572-3.572 3.572c-1.975 0-3.572-1.596-3.572-3.572s1.597-3.572 3.572-3.572z"></path>
            <path d="M36.247 26.95c-2.208 0-4.003 1.795-4.003 4.003s1.795 4.002 4.003 4.002c2.208 0 4.003-1.794 4.003-4.003s-1.795-4.003-4.003-4.003zM36.247 27.381c1.975 0 3.572 1.597 3.572 3.572s-1.597 3.572-3.572 3.572c-1.975 0-3.572-1.596-3.572-3.572s1.597-3.572 3.572-3.572z"></path>
        </symbol>
        <symbol id="icon-fifa" viewBox="0 0 45 64">
            <title>fifa</title>
            <path d="M13.34,42.08q0-2.46,0-4.92c.13-.75.25-1.49.39-2.24a26.13,26.13,0,0,1,20.2-20.8c1.44-.31,2.9-.53,4.35-.79h4.29c.78.12,1.57.22,2.34.37a26.73,26.73,0,1,1-9.77,52.56c-10.81-2.2-17.61-9-20.85-19.39A44.46,44.46,0,0,1,13.34,42.08Zm14-7.58c0,.19,0,.25,0,.3.62,3.13,1.22,6.27,1.87,9.4a1,1,0,0,0,.6.57c2.78.9,5.58,1.76,8.37,2.66a1,1,0,0,0,1.12-.26c2.3-2.26,4.64-4.48,6.94-6.74a1.19,1.19,0,0,0,.29-.93c-.53-2.61-1.14-5.21-1.67-7.82a1.1,1.1,0,0,0-.84-1c-3-.94-5.92-1.92-8.89-2.85a1.17,1.17,0,0,0-1,.19c-2.2,2-4.37,4-6.54,6A2.15,2.15,0,0,0,27.3,34.5ZM57.67,52.67c0-.27,0-.37,0-.48-.42-2.69-.82-5.38-1.28-8.06a1,1,0,0,0-.62-.62c-2.47-.58-4.94-1.12-7.42-1.65a1,1,0,0,0-.76.2q-3.69,3.37-7.32,6.8a1.09,1.09,0,0,0-.28.81c.26,2.2.59,4.4.84,6.6a.71.71,0,0,0,.65.72c2.73.62,5.45,1.26,8.18,1.86a1.16,1.16,0,0,0,.86-.17c2.3-1.83,4.57-3.68,6.84-5.54A1.87,1.87,0,0,0,57.67,52.67ZM33,20.18c.65,1.75,1.29,3.42,1.89,5.11a1.23,1.23,0,0,0,.91.86c3,.91,6,1.85,9,2.76a1.4,1.4,0,0,0,.89,0c2.23-1,4.44-2,6.67-2.94.44-.19.61-.4.52-.88-.36-1.92-.73-3.84-1.05-5.77A2.59,2.59,0,0,0,50.3,17.2a47.6,47.6,0,0,0-4.64-1.77,6.11,6.11,0,0,0-5,.65c-1.61.9-3.28,1.7-4.92,2.57C34.85,19.13,33.94,19.65,33,20.18Zm-9.63,31c1.36-2.11,2.67-4.12,4-6.15a1,1,0,0,0,.13-.67q-.91-4.75-1.87-9.48a.78.78,0,0,0-.38-.51c-1.92-.74-3.84-1.44-5.8-2.17-1.33,2.06-2.63,4.08-3.92,6.11a2.46,2.46,0,0,0-.33,1,13.8,13.8,0,0,0,1.31,8.16,3.05,3.05,0,0,0,1.3,1.31C19.55,49.64,21.42,50.38,23.35,51.2Zm39.58-16a6.24,6.24,0,0,1-1,0c-.76-.12-1.1.22-1.37.92-.82,2.14-1.75,4.25-2.59,6.38a3,3,0,0,0-.16,1.45c.31,2.06.69,4.12,1,6.18s.35,2.17,2.57,2.3c0,0,.06,0,.08,0,.29-.16.71-.25.85-.49A24.13,24.13,0,0,0,65.2,37.13C65,35.17,64.9,35.18,62.93,35.18ZM41.06,65.27c.79-.08,2.14-.16,3.47-.34a21.41,21.41,0,0,0,2.78-.62c1.93-.54,1.92-.56,1.92-2.52a4.86,4.86,0,0,1,0-.56c.05-.45-.12-.64-.58-.74-2.6-.58-5.2-1.2-7.8-1.79a2.23,2.23,0,0,0-.93,0c-2,.42-4,.86-6,1.31-.74.17-1.75.15-2.13.62s-.1,1.46-.17,2.22a.93.93,0,0,0,.74,1.09A25,25,0,0,0,41.06,65.27ZM64.43,33.74a21.88,21.88,0,0,0-11.07-15c.42,2.31.81,4.52,1.24,6.72A2.59,2.59,0,0,0,55,26.51q2.64,3.42,5.34,6.8a1,1,0,0,0,.62.41C62.07,33.76,63.15,33.74,64.43,33.74ZM29.86,63c0-.93,0-1.69,0-2.45a1.16,1.16,0,0,0-.36-.64,50,50,0,0,1-4.09-4.29,9.15,9.15,0,0,0-5.51-3.86,10.43,10.43,0,0,1-1.61-.64c-.15-.06-.31-.09-.61-.18A21.81,21.81,0,0,0,29.86,63ZM40.6,14.71a5.21,5.21,0,0,0-.88-.1,38.67,38.67,0,0,0-4.55.5,25,25,0,0,0-9.71,4.26,21,21,0,0,0-2,1.92l.16.19c.87-.28,1.73-.6,2.62-.84a38.2,38.2,0,0,0,5.42-1.44C34.65,17.9,37.5,16.29,40.6,14.71ZM21.37,23.4a19,19,0,0,0-6.21,12.4C18.57,32.22,19.88,27.77,21.37,23.4Z" transform="translate(-13.34 -13.34)" />
        </symbol>
    </defs>
</svg>
